<svg width="265" height="38" viewBox="0 0 265 38" fill="none" xmlns="http://www.w3.org/2000/svg">
<g clip-path="url(#clip0_619_3662)">
<path fill-rule="evenodd" clip-rule="evenodd" d="M260.22 30.1888L255.618 23.0315C255.438 23.0315 255.167 23.0315 254.716 23.0315H249.663V30.0971H245.512V5.87241H254.716C256.701 5.87241 258.325 6.23945 259.769 6.88177C261.212 7.61585 262.295 8.53345 263.107 9.90985C263.919 11.1945 264.28 12.7544 264.28 14.4979C264.28 16.3331 263.829 17.893 263.017 19.2694C262.205 20.554 261.032 21.5634 259.498 22.2057L264.641 30.1888H260.22ZM2.2547 7.15705C-6.58775 32.7581 16.2402 40.833 24.2706 35.4192C27.3384 33.3087 29.143 29.1795 26.9775 25.6008C24.1804 21.0128 13.0822 20.9211 7.30753 16.7919C2.70585 13.4885 3.78859 11.4698 2.2547 7.15705ZM34.0154 27.7113C32.301 23.7656 33.0228 21.4716 28.6016 18.9941C25.3534 17.1589 21.9246 16.6083 18.2253 15.6907C5.86387 12.4791 5.14203 5.68889 11.0069 1.83496C21.1126 -4.86353 43.0383 7.61585 34.0154 27.7113ZM57.3847 30.5559C55.6703 30.5559 53.956 30.2806 52.3319 29.73C50.7077 29.1795 49.4445 28.4454 48.452 27.6195L49.8957 24.1327C50.798 24.9585 51.9709 25.6008 53.3244 26.0596C54.6778 26.5184 56.0313 26.7937 57.3847 26.7937C59.099 26.7937 60.272 26.5184 61.0841 25.9679C61.8961 25.4173 62.3473 24.5915 62.3473 23.6739C62.3473 22.9398 62.0766 22.3892 61.6255 21.9304C61.1743 21.4716 60.5427 21.1046 59.9111 20.8293C59.1893 20.554 58.1968 20.2787 57.0238 20.0035C55.3094 19.5447 53.956 19.0859 52.8732 18.7188C51.7905 18.26 50.8882 17.6177 50.1664 16.6083C49.4445 15.6907 48.9934 14.4061 48.9934 12.7544C48.9934 11.378 49.3543 10.1851 49.9859 9.08401C50.6175 7.98289 51.7003 7.06529 53.0537 6.42297C54.4071 5.78065 56.1215 5.50537 58.1065 5.50537C59.46 5.50537 60.8134 5.68889 62.1668 6.05593C63.5203 6.42297 64.603 6.97353 65.5955 7.61585L64.2421 11.1027C63.2496 10.4604 62.2571 10.0016 61.1743 9.63457C60.0916 9.26753 59.099 9.17577 58.0163 9.17577C56.3922 9.17577 55.129 9.45105 54.3169 10.0934C53.5048 10.7357 53.1439 11.4698 53.1439 12.4791C53.1439 13.2132 53.4146 13.7638 53.8658 14.2226C54.3169 14.6814 54.9485 15.0484 55.5801 15.2319C56.3019 15.5072 57.2945 15.7825 58.4674 16.0578C60.1818 16.5166 61.5352 16.8836 62.618 17.3424C63.7007 17.8012 64.603 18.4435 65.3249 19.4529C66.0467 20.3705 66.4978 21.6551 66.4978 23.2151C66.4978 24.5915 66.1369 25.7843 65.5053 26.8855C64.8737 27.9866 63.791 28.8124 62.4375 29.4548C61.0841 30.1888 59.3697 30.5559 57.3847 30.5559ZM83.1902 30.5559C80.9345 30.5559 78.8592 30.0053 76.9644 28.9042C75.1598 27.8031 73.7162 26.3349 72.6334 24.4079C71.5507 22.481 71.0995 20.3705 71.0995 17.9847C71.0995 15.599 71.6409 13.4885 72.6334 11.5615C73.7162 9.63457 75.1598 8.16641 76.9644 7.06529C78.769 5.96417 80.8443 5.41361 83.1902 5.41361C85.4459 5.41361 87.5212 5.96417 89.416 7.06529C91.2206 8.16641 92.6643 9.63457 93.747 11.5615C94.8298 13.4885 95.2809 15.599 95.2809 17.9847C95.2809 20.3705 94.7395 22.481 93.747 24.4079C92.6643 26.3349 91.2206 27.8031 89.416 28.9042C87.5212 30.0053 85.5362 30.5559 83.1902 30.5559ZM83.1902 26.6102C84.7241 26.6102 86.0776 26.2431 87.2505 25.5091C88.4235 24.775 89.416 23.7656 90.0476 22.481C90.7695 21.1963 91.0402 19.7282 91.0402 18.0765C91.0402 16.4248 90.6792 14.9567 90.0476 13.672C89.3258 12.3874 88.4235 11.378 87.2505 10.6439C86.0776 9.90985 84.7241 9.54281 83.1902 9.54281C81.6563 9.54281 80.3029 9.90985 79.1299 10.6439C77.9569 11.378 76.9644 12.3874 76.3328 13.672C75.611 14.9567 75.3403 16.4248 75.3403 18.0765C75.3403 19.7282 75.7012 21.1963 76.3328 22.481C77.0546 23.7656 77.9569 24.775 79.1299 25.5091C80.3931 26.2431 81.7466 26.6102 83.1902 26.6102ZM110.259 30.5559C107.191 30.5559 104.755 29.6383 103.041 27.7113C101.326 25.7843 100.424 23.1233 100.424 19.5447V5.78065H104.575V19.3611C104.575 24.1327 106.469 26.5184 110.259 26.5184C114.049 26.5184 115.943 24.1327 115.943 19.3611V5.87241H120.094V19.6364C120.094 23.1233 119.192 25.8761 117.477 27.8031C115.763 29.6383 113.327 30.5559 110.259 30.5559ZM140.666 30.1888L136.064 23.0315C135.884 23.0315 135.613 23.0315 135.162 23.0315H130.109V30.0971H125.959V5.87241H135.252C137.237 5.87241 138.862 6.23945 140.305 6.88177C141.749 7.61585 142.832 8.53345 143.644 9.90985C144.456 11.1945 144.817 12.7544 144.817 14.4979C144.817 16.3331 144.366 17.893 143.553 19.2694C142.741 20.554 141.568 21.5634 140.035 22.2057L145.178 30.1888H140.666ZM140.576 14.4979C140.576 12.9379 140.125 11.7451 139.132 10.9192C138.23 10.0934 136.786 9.63457 134.982 9.63457H130.109V19.3611H134.982C136.786 19.3611 138.14 18.9023 139.132 18.0765C140.125 17.2507 140.576 16.0578 140.576 14.4979ZM161.87 30.5559C159.614 30.5559 157.539 30.0053 155.734 28.9042C153.93 27.8031 152.486 26.3349 151.403 24.4079C150.321 22.481 149.87 20.3705 149.87 17.9847C149.87 15.599 150.411 13.4885 151.403 11.5615C152.486 9.63457 153.93 8.16641 155.734 7.06529C157.539 5.96417 159.614 5.41361 161.87 5.41361C163.675 5.41361 165.389 5.78065 166.923 6.42297C168.457 7.15705 169.72 8.16641 170.803 9.45105L168.096 12.2039C166.472 10.2769 164.487 9.35929 162.05 9.35929C160.517 9.35929 159.163 9.72633 157.9 10.4604C156.637 11.1945 155.734 12.2039 155.013 13.4885C154.291 14.7731 154.02 16.2413 154.02 17.893C154.02 19.5447 154.381 21.0128 155.013 22.2975C155.734 23.5821 156.637 24.5915 157.9 25.3255C159.163 26.0596 160.517 26.4267 162.05 26.4267C164.396 26.4267 166.472 25.5091 168.096 23.5821L170.803 26.3349C169.72 27.6195 168.457 28.6289 166.923 29.363C165.479 30.1888 163.765 30.5559 161.87 30.5559ZM193.811 26.4267V30.1888H176.938V5.87241H193.36V9.63457H181.089V15.966H191.916V19.7282H181.089V26.4267H193.811ZM205.09 9.63457H197.601V5.87241H216.639V9.72633H209.15V30.2806H205.09V9.63457ZM238.745 26.4267V30.1888H221.872V5.87241H238.294V9.63457H226.023V15.966H236.85V19.7282H226.023V26.4267H238.745ZM260.13 14.4979C260.13 12.9379 259.678 11.7451 258.686 10.9192C257.784 10.0934 256.34 9.63457 254.535 9.63457H249.663V19.3611H254.535C256.34 19.3611 257.693 18.9023 258.686 18.0765C259.588 17.2507 260.13 16.0578 260.13 14.4979Z" fill="url(#paint0_linear_619_3662)"/>
</g>
<defs>
<linearGradient id="paint0_linear_619_3662" x1="134.582" y1="-17.2568" x2="130.166" y2="66.1259" gradientUnits="userSpaceOnUse">
<stop stop-color="#77C8D2"/>
<stop offset="1" stop-color="#65B65C"/>
</linearGradient>
<clipPath id="clip0_619_3662">
<rect width="264.462" height="37.0711" fill="white" transform="translate(0.269531)"/>
</clipPath>
</defs>
</svg>
